<svg enable-background="new 0 0 140 140" height="512" viewBox="0 0 140 140" width="512" xmlns="http://www.w3.org/2000/svg"><circle cx="70" cy="70" fill="#509fd7" r="64"/><path d="m133.9799805 69.1699219c0 .2800293.0200195.5500488.0200195.8300781 0 35.3500977-28.6500244 64-64 64-2.0600586 0-4.0999756-.1098633-6.1099854-.3000488l-13.5799561-13.579834h-.0100098l-5.5600586-5.5700684 2.7299805-5.2199707c-.5899658-.9101562-1.0999756-1.8701172-1.5699463-2.8500977l-7.6900635-7.6899414v-2.7001953l-6.6398926-6.6398926c-.3801268-11.0300292 5.0200197-25.4499511 5.0200197-25.4499511l20.4299316-8.0400391 4.8999023-2.5h.0100098l.0300293.0100098v-4.5700684c-2.8199463-2.3798828-4.6298828-5.9799805-4.6298828-9.9899902v-.4699707l-.9700928-.9699707c-.9200439-.7700195-1.5699463-2.5900879-1.5699463-4.7199707 0-2.1000977.6298828-3.8901367 1.5300293-4.6799316l-.0200195-1.5400391c-1.8701172-10.7800293 7.6899414-11.6398926 7.6899414-11.6398926 11.6099854-3.6401367 15.1999512.1198731 16.2800293 2.3898926.4299316.8999023 1.3100586 1.5 2.3000488 1.5400391l.0998535.0100098c.7600098.0297852 1.4300537.3798828 1.8901367.9199219l41.8199463 41.8200684c.0599365.0598145.1300049.119873.1800537.1799316z" opacity=".1"/><path d="m60.3147049 56.8647575c.751976 4.6765099 4.8041077 8.2642326 9.6893616 8.2642326 4.8853226 0 8.9375076-3.5877228 9.6894226-8.2643471-1.7247162-1.2002144-1.6470261-2.8507729-1.6470261-2.8507729v-5.1117706h-16.084671l-.0400276 5.0951996c0 .0000001.1177711 1.6671868-1.6070595 2.8674584z" fill="#d6b24e"/><path d="m82.6796875 27.6405392c-.0027313 0-.005394.0008183-.0081253.0008183-.1710892-6.9716549-5.8026581-12.6215906-12.6674042-12.6215906h-.0000687c-6.8647423 0-12.4963112 5.6499357-12.6673965 12.6215906-.0027313 0-.005394-.0008183-.0081253-.0008183-1.3996162 0-2.5341339 2.2869263-2.5341339 5.107935s1.1345177 5.1079025 2.5341339 5.1079025v1.0581245c0 7.1207924 5.7040062 12.9469337 12.6755219 12.9469337h.0000687c6.9715195 0 12.6755295-5.8261414 12.6755295-12.9469337v-1.0581245c1.3995438 0 2.5341339-2.2868958 2.5341339-5.1079025s-1.1345902-5.107935-2.534134-5.107935z" fill="#fdd96f"/><path d="m75.6257095 74.6705399 4.4612427-13.0803261-6.9026489-3.3935547-2.5645142 2.6247559.1380005 12.489994c1.6122437.1784668 3.2470703.6691894 4.8679199 1.3591309z" fill="#e6e7e8"/><path d="m78.0696793 53.4522858-8.0739594 4.204628 6.2979508 3.9333152z" fill="#dad7dc"/><path d="m69.2344742 73.2398758.137207-12.4184608-2.5645142-2.6247559-6.9026527 3.3935547 4.4478188 13.0407753c1.5603637-.9360352 3.2015991-1.3591309 4.8821411-1.3911133z" fill="#e6e7e8"/><path d="m105.0931396 69.140625c-.9556885-3.2062988-3.331665-5.7875977-6.4454346-7.0117188l-15.680664-6.165039-3.1524658 3.5136719-3.5289307 15.503418c8.689209 4.0371094 11.5336914 12.1606445 15.3669434 20.3583984.7144775-.1489258 1.4173584-.3017578 2.0893555-.4619141.6976318-.1552734 1.3436279-.3359375 1.989624-.5170898 8.2167969-2.1704102 12.6868896-4.9091797 12.6868896-4.9091797.2423096-6.8969727-1.7770996-15.1166992-3.3253174-20.3105469z" fill="#344e5c"/><path d="m57.0246582 55.9638672-15.6807861 6.1650391c-3.1136475 1.2241211-5.489624 3.8056641-6.4454346 7.0117188-1.5482178 5.1938477-3.567627 13.4135742-3.3254395 20.3105469 0 0 4.4702148 2.7387695 12.6871338 4.9091797.6459961.1811523 1.2919922.3618164 1.989502.5170898 1.37146.3271484 2.8465576.628418 4.3944092.902832-2.4934082-7.3295898 3.9050293-15.1279297 11.0935059-18.9833984.4082031-.4370117.833252-.8583984 1.2993164-1.2416992.2250977-.1855469.4528809-.3554688.6820068-.5166016l-3.5418701-15.5610352z" fill="#344e5c"/><path d="m61.9217644 53.4522858 8.0739555 4.204628-6.2979469 3.933319z" fill="#dad7dc"/><path d="m67.6866837 73.386116c1.512207-.2595215 3.0675049-.1623535 4.6333008.1921387l-.8772583-11.1806679 1.4987183-2.894043-2.9456787-1.8344727-2.9457397 1.8344727 1.4987183 2.894043z" fill="#9e9054"/><path d="m75.7048721 74.7027664c1.6887817.7258301 3.1600342 1.6032715 4.467041 2.5998535l4.0353394-7.7993164-3.6173706-2.1188965 4.1341553-2.2736816-1.757019-9.1469765-4.9094849-2.5065918-4.4593506 20.467289c.7030029.2182617 1.4061889.4772949 2.1066894.7783203z" fill="#304651"/><path d="m55.784214 69.5033035 4.2810669 8.2741699c.550293-.3486328 1.1083984-.6779785 1.6723022-.9804688.4080811-.4372559.8331909-.8583984 1.2993164-1.2419434 1.0620766-.8737793 2.1718788-1.4641113 3.3120155-1.8342285l-4.4149818-20.2636757-4.9093018 2.5065918-1.7572021 9.1469765 4.1343384 2.2736816z" fill="#304651"/><path d="m56.3554115 31.5547771c.0181236 1.6721325.1904182 3.3382702.5025826 4.9806995h.4713058c.4541435-2.2732964 1.3460732-7.2452717.8566437-9.0604725-.6427879-2.3839321 2.3869286-3.1049976 2.3869286-3.1049976s10.671154 3.1535053 18.4955101-1.8492661c0 0 3.3232117 2.2893715 3.3786697 8.2333984.0304489 3.2619667.2928085 4.9327354.5234909 5.7813377h.4583664l1.7822266-14.9295578c.0656738-1.468565-1.0716553-2.7123089-2.5402222-2.7779846l-.0980301-.0043602c-.9951477-.0446911-1.8684082-.6474876-2.298912-1.5459576-1.0883408-2.2713861-4.674324-6.0241451-16.27985-2.3891115 0 0-9.5657768.8567772-7.6930084 11.6457891z" fill="#344e5c"/><path d="m96.1683044 89.1643448c-.687561-3.1737823-1.9429169-6.1306763-3.6455383-8.7755356l2.7302856-5.2265472-5.561348-5.561348-5.2266083 2.7300339c-2.6451187-1.7026215-5.6017532-2.9576645-8.7755356-3.6454086l-1.761261-5.6142883h-7.8650131l-1.761322 5.6142883c-3.1737175.6877441-6.1304169 1.9427872-8.7755356 3.6454086l-5.2265471-2.7300339-5.5614052 5.561348 2.7302208 5.2265472c-1.7026253 2.6448593-2.9578514 5.6017532-3.6454124 8.7755356l-5.6142845 1.7611923v7.8650131l5.6142845 1.7611923c.687561 3.1740417 1.9427872 6.1306763 3.6454124 8.7755356l-2.7302208 5.2268066 5.5614052 5.5610886 5.2265472-2.7300339c2.6451187 1.7026215 5.6018181 2.9576645 8.7755356 3.6454086l1.761322 5.6142883h7.8650131l1.761261-5.6142883c3.1737823-.6877441 6.1304169-1.9427872 8.7755356-3.6454086l5.2266083 2.7300339 5.561348-5.5610886-2.7302856-5.2268066c1.7026215-2.6448593 2.9579773-5.6014938 3.6455383-8.7755356l5.6141586-1.7611923v-7.8650131zm-26.1725769 20.5422363c-8.200573 0-14.8485336-6.6478348-14.8485336-14.8486633 0-8.2005768 6.6479607-14.8484116 14.8485336-14.8484116 8.2006454 0 14.8486023 6.6478348 14.8486023 14.8484116 0 8.2008285-6.6479568 14.8486633-14.8486023 14.8486633z" fill="#ececec"/><path d="m69.9953842 117.136528c-12.2841797 0-22.2784767-9.9936066-22.2784767-22.2777863s9.994297-22.2791672 22.2784767-22.2791672c12.284874 0 22.2791672 9.9949799 22.2791672 22.2791672s-9.9942932 22.2777863-22.2791672 22.2777863zm0-41.7428589c-10.7328568 0-19.4643822 8.7322083-19.4643822 19.4650726s8.7315254 19.4636917 19.4643822 19.4636917 19.4650726-8.730835 19.4650726-19.4636917-8.7322082-19.4650726-19.4650726-19.4650726z" fill="#b0b1b5"/></svg>